<?xml version="1.0" encoding="UTF-8" standalone="no"?>
<!-- Generator: Adobe Illustrator 27.5.0, SVG Export Plug-In . SVG Version: 6.00 Build 0)  -->

<svg
   version="1.1"
   id="Layer_1"
   x="0px"
   y="0px"
   viewBox="0 0 678.81726 522.77234"
   xml:space="preserve"
   sodipodi:docname="live-location-logo.svg"
   width="678.81726"
   height="522.77234"
   inkscape:version="1.3.2 (091e20e, 2023-11-25)"
   xmlns:inkscape="http://www.inkscape.org/namespaces/inkscape"
   xmlns:sodipodi="http://sodipodi.sourceforge.net/DTD/sodipodi-0.dtd"
   xmlns="http://www.w3.org/2000/svg"
   xmlns:svg="http://www.w3.org/2000/svg"><defs
   id="defs12" /><sodipodi:namedview
   id="namedview12"
   pagecolor="#ffffff"
   bordercolor="#000000"
   borderopacity="0.25"
   inkscape:showpageshadow="2"
   inkscape:pageopacity="0.0"
   inkscape:pagecheckerboard="0"
   inkscape:deskcolor="#d1d1d1"
   inkscape:zoom="1.265625"
   inkscape:cx="304.59259"
   inkscape:cy="321.97531"
   inkscape:window-width="1920"
   inkscape:window-height="1019"
   inkscape:window-x="0"
   inkscape:window-y="24"
   inkscape:window-maximized="1"
   inkscape:current-layer="Layer_1" />
<style
   type="text/css"
   id="style1">
	.st0{fill:#333333;}
	.st1{fill:#FFFFFF;}
</style>
<g
   id="g12"
   transform="translate(-635.6572,-291.67)">
	<g
   id="g4">
		<path
   class="st0"
   d="m 1069.51,406.6 c 0,63.47 -114.93,167.22 -114.93,167.22 0,0 -114.93,-103.75 -114.93,-167.22 0,-63.47 51.46,-114.93 114.93,-114.93 63.47,0 114.93,51.45 114.93,114.93 z"
   id="path1" />
		<g
   id="g3">
			
				<circle
   transform="matrix(0.9265,-0.3762,0.3762,0.9265,-82.5112,388.9623)"
   class="st1"
   cx="954.58002"
   cy="405.73001"
   id="ellipse1"
   r="87.290001" />
			<path
   class="st0"
   d="m 1008.26,405.73 c 0,29.65 -24.03,53.69 -53.69,53.69 -29.65,0 -53.69,-24.04 -53.69,-53.69 0,-29.65 24.04,-53.69 53.69,-53.69 29.66,0 53.69,24.04 53.69,53.69 z"
   id="path2" />
			<path
   class="st1"
   d="m 976.8,405.87 c 0,12.27 -9.95,22.22 -22.22,22.22 -12.27,0 -22.22,-9.95 -22.22,-22.22 0,-12.27 9.95,-22.22 22.22,-22.22 12.27,0 22.22,9.95 22.22,22.22 z"
   id="path3" />
		</g>
	</g>
	<g
   id="g11">
		<path
   class="st0"
   d="m 1020.24,648.75 c 0.24,-2.1 0.37,-4.02 0.69,-5.9 1.96,-11.61 2.92,-12.85 14.54,-12.15 6.74,0.41 10.98,-1.91 14.86,-7.09 6.56,-8.78 13.68,-17.14 21.35,-26.65 -11.31,-5.05 -20.13,-13.58 -33.65,-13.57 -90.36,0.09 -180.73,1.75 -271.09,0.21 -6.5,-0.11 -13.38,1.02 -19.38,-3.54 2.78,-3.89 6.6,-3.52 10.1,-3.73 41.34,-2.51 82.74,-1.07 124.1,-1.14 52.64,-0.09 105.28,0.5 157.92,0.89 30.34,0.22 60.67,0.6 91.01,0.97 4.12,0.05 8.31,0.09 12.04,3.18 -24.09,3.02 -48.34,2.3 -73.17,3.26 1.59,3.99 5.12,4.85 7.8,6.28 6.47,3.47 6.78,7.37 2.09,12.65 -8.01,9.03 -16.09,18.01 -24.13,29.81 13.92,-2.19 18.92,3.78 16.28,15.57 3.74,2.47 7.21,1.54 10.48,1.55 52.08,0.08 104.16,0.02 156.24,0.18 4.34,0.01 11.65,-2.37 11.86,4.17 0.23,7.04 -7.23,4.4 -11.4,4.42 -64.18,0.22 -128.37,0.29 -192.55,0.09 -6.42,-0.02 -9.99,1.7 -13.14,7.56 -7.82,14.53 -17.76,27.89 -25.1,42.9 3.24,2.33 6.4,1.32 9.31,1.33 47.58,0.1 95.19,-1.02 142.72,0.49 34.44,1.09 68.78,5.39 103.29,6.27 1.12,0.03 2.26,0.14 3.35,0.37 2.99,0.64 5.58,2.01 4.91,5.57 -0.58,3.08 -3.22,3.59 -5.97,3.3 -21.88,-2.31 -43.88,-1.16 -65.8,-2.38 -4.95,-0.27 -10.26,-0.2 -13.68,-5.07 -1.8,-2.56 -4.63,-1.49 -7.04,-1.49 -108.67,-0.01 -217.33,0.01 -326,0.04 -4.42,0 -8.84,0 -13.99,-1.23 13.22,-19.41 28.62,-36.61 42.51,-58.79 -14.71,0 -27.47,-0.37 -40.21,0.07 -29.25,1.02 -58.57,0 -87.77,2.38 -13.83,1.13 -27.35,3.59 -38.34,16.35 12.88,0 24.4,0.04 35.91,-0.03 2.95,-0.02 6.5,-2.04 8.34,1.67 1.73,3.47 -1.54,5.69 -3.26,8.06 -4.12,5.7 -9.58,10.71 -12.52,16.93 -5.2,11.01 -13.66,14.36 -24.83,14.16 -6.75,-0.12 -13.64,1.22 -20.23,0.29 -12.1,-1.71 -19.81,4.78 -26.74,12.75 -11.56,13.29 -19.85,28.63 -26.58,44.83 -3.31,7.96 2.84,6.85 7.09,6.86 30.68,0.05 61.37,-0.09 92.06,-0.1 172.29,-0.05 344.58,-0.11 516.87,0 4.41,0 12.27,-2.88 12.09,4.62 -0.15,6.47 -7.65,3.8 -11.92,3.83 -36.6,0.19 -73.19,0.09 -109.79,0.07 -3.08,0 -6.16,0 -9.66,0 -0.55,5.03 -1.06,9.65 -1.67,15.27 21.22,0 42.28,0 63.33,0 6.47,0 12.96,-0.18 19.42,0.08 3.89,0.16 9.94,-1.48 9.91,4.63 -0.03,5.55 -5.86,4.07 -9.45,4.12 -21.67,0.3 -43.34,0.48 -65,0.48 -121.61,0.04 -243.23,0.02 -364.84,0 -47.57,-0.01 -95.14,0.01 -142.71,-0.19 -4.65,-0.02 -12.55,1.82 -12.57,-4.54 -0.02,-6.28 7.79,-4.55 12.53,-4.63 14.04,-0.22 28.08,-0.08 42.66,-0.08 -0.43,-5.36 0.2,-9.99 1.7,-15.33 -13.74,0.55 -26.9,-1.04 -40.02,1.03 -6.41,1.01 -12.71,0.65 -17.03,-4.72 -4.4,-5.47 -2.7,-11.29 -0.15,-17.42 11.04,-26.61 26.87,-49.33 51.28,-65.4 5.11,-3.36 8.92,-7.83 10.32,-13.9 5.75,-24.91 23.48,-35.53 46.93,-37.84 35.04,-3.45 70.37,-4.11 105.43,-3.02 54.85,1.71 109.66,0.08 164.48,0.96 1.09,0.03 2.16,-0.33 3.58,-0.57 z m 0.17,10.6 c -1.53,-0.54 -2.05,-0.89 -2.57,-0.89 -41.59,-0.11 -83.19,-0.15 -124.78,-0.33 -4.29,-0.02 -6.4,2.27 -8.74,5.37 -10.46,13.89 -19.71,28.72 -31.68,41.47 -1.23,1.31 -3.37,2.39 -2.06,5.05 45.15,0 90.38,-0.04 135.61,0.06 4.68,0.01 6.2,-3.18 7.9,-6.4 4.87,-9.19 9.99,-18.23 16.12,-26.66 3.91,-5.38 8.08,-10.66 10.2,-17.67 z m 30.97,145.25 c -4.93,-4.77 -3.06,-9.85 -4.12,-14.48 -85.65,0 -170.78,0 -256.4,0 0.29,5.05 0.55,9.62 0.83,14.48 86.21,0 171.65,0 259.69,0 z m -23.2,-155.94 c 12.04,0 24.09,0 36.09,0 0.48,-3.45 1.25,-6.17 -0.48,-9.31 -8.33,-0.79 -16.88,-1.63 -25.44,-2.4 -10.8,-0.98 -11.48,-0.2 -10.17,11.71 z m -31.77,60.92 c 2.84,0.47 5.67,1.15 6.76,-1.04 8.41,-16.87 19.19,-32.43 29.1,-49.67 -6.64,0.67 -27.83,31.93 -35.86,50.71 z M 724.8,790.24 c 8.51,6.03 32.71,5.63 35.35,0 -11.53,0 -23.06,0 -35.35,0 z m 353.57,-0.01 c 10.11,6.26 29.48,5.54 32.15,0 -10.02,0 -19.94,0 -32.15,0 z m 31.8,14.13 c -10.28,-0.51 -20.57,-3.73 -30.85,-2.18 0,0.73 0,1.46 0,2.18 10.28,0 20.57,0 30.85,0 z"
   id="path4" />
		<path
   class="st0"
   d="m 815.96,747.46 c 86.4,1.46 170.72,-1.52 254.98,1.58 0.24,0.01 0.45,0.94 0.74,1.59 -1.67,3.8 -5.22,2.5 -7.99,2.5 -79.39,0.03 -158.78,0.02 -238.17,-0.22 -5.34,-0.02 -13.19,2.49 -15.49,-3.1 -2.31,-5.64 5.75,-8.61 8.79,-13.07 8.32,-12.23 19.8,-14.61 34.06,-14.54 98.81,0.51 197.63,0.2 296.45,0.16 2.47,0 5.17,-0.63 6.93,2.41 -0.82,4.83 -4.78,3.48 -7.82,3.48 -73.76,0.05 -147.52,0.15 -221.28,0 -28.71,-0.06 -57.43,0.91 -86.12,-0.9 -4.16,-0.26 -6.7,1.46 -9.33,4.39 -4.49,4.97 -9.47,9.5 -15.75,15.72 z"
   id="path5" />
		<path
   class="st0"
   d="m 1213.68,739.45 c 15.44,0 33.45,-0.01 51.46,0.01 1.96,0 3.95,0.01 5.89,0.31 2.37,0.37 4.44,1.55 4.5,4.23 0.07,3.12 -2.18,4.36 -4.91,4.72 -1.66,0.22 -3.37,0.19 -5.06,0.15 -36,-0.89 -72,-1.8 -108,-2.72 -1.4,-0.04 -2.81,-0.2 -4.21,-0.3 -2.9,-0.21 -6.21,-0.53 -6.29,-4.16 -0.09,-4.27 3.48,-4.41 6.7,-4.42 19.13,-0.08 38.27,-0.23 59.92,2.18 z"
   id="path6" />
		<path
   class="st0"
   d="m 1240.5,667.66 c 17.99,0.01 35.98,-0.03 53.97,0.04 3.52,0.01 8.34,-0.69 8.14,4.65 -0.17,4.56 -4.58,4.08 -7.92,4.09 -36.54,0.01 -73.09,-0.01 -109.63,-0.02 -0.56,0 -1.12,-0.01 -1.69,-0.03 -3.15,-0.14 -6.94,-0.2 -7.06,-4.23 -0.12,-4.19 3.71,-4.28 6.84,-4.32 8.99,-0.11 17.99,-0.14 26.98,-0.17 10.13,-0.03 20.25,-0.01 30.37,-0.01 z"
   id="path7" />
		<path
   class="st0"
   d="m 1259.06,760.42 c 15.73,0 31.47,-0.01 47.2,0.01 3.63,0 8.38,-0.53 8.21,4.63 -0.17,5.06 -4.95,4.31 -8.54,4.3 -31.19,-0.01 -62.38,-0.04 -93.57,-0.07 -1.12,0 -2.25,0.03 -3.37,-0.06 -3.31,-0.29 -7.83,-0.06 -7.67,-4.49 0.16,-4.43 4.69,-4 8,-4.01 16.58,-0.05 33.16,-0.03 49.73,-0.03 0.01,-0.1 0.01,-0.19 0.01,-0.28 z"
   id="path8" />
		<path
   class="st0"
   d="m 1182.63,699.08 c -12.89,0 -25.79,0.05 -38.68,-0.04 -3.33,-0.02 -7.59,0.08 -7.37,-4.66 0.18,-3.77 3.83,-4.3 7.09,-4.29 25.23,0.02 50.46,0.02 75.68,0.12 3.34,0.01 7.61,0.17 7.63,4.63 0.02,5.29 -4.65,4.57 -8.2,4.58 -12.05,0.06 -24.1,0.02 -36.15,0.02 0,-0.12 0,-0.24 0,-0.36 z"
   id="path9" />
		<path
   class="st0"
   d="m 1154.32,769.3 c -6.44,0 -12.89,0.04 -19.33,-0.02 -2.7,-0.02 -5.42,-0.86 -5.57,-3.9 -0.18,-3.61 2.76,-4.53 5.77,-4.55 13.17,-0.07 26.33,-0.06 39.5,-0.05 2.76,0 5.33,0.95 5.49,3.99 0.2,3.65 -2.63,4.57 -5.69,4.59 -6.72,0.05 -13.45,0.02 -20.17,0.02 0,-0.02 0,-0.05 0,-0.08 z"
   id="path10" />
		<path
   class="st0"
   d="m 1059.33,682.63 c 3.7,-4.14 7.74,-2.62 12.47,-0.75 -1.01,3.39 -1.11,6.69 -0.08,9.88 -6.99,1.42 -6.99,1.42 -12.39,-9.13 z"
   id="path11" />
	</g>
</g>
</svg>
