<?xml version="1.0" encoding="utf-8"?>
<!-- Generator: Adobe Illustrator 27.5.0, SVG Export Plug-In . SVG Version: 6.00 Build 0)  -->
<svg version="1.1" id="Layer_1" xmlns="http://www.w3.org/2000/svg" xmlns:xlink="http://www.w3.org/1999/xlink" x="0px"
	y="0px" viewBox="0 0 1920 1080" style="enable-background:new 0 0 1920 1080;" xml:space="preserve">
	<style type="text/css">
		.st0 {
			fill: #333333;
		}
	</style>
	<g>
		<path class="st0" d="M836.28,636.09c15.86-9.96,32.09-19.3,48.71-27.94c9.75-5.07,19.63-9.96,29.63-14.37
		c24.09-10.6,48.87-20.55,74.22-28.25c35.86-10.89,72.47-18.3,109.85-21.42c13.11-1.09,26.71-1.7,39.07-1.68
		c6.15,0,11.46,0.1,17.02,0.32c0.37-0.99,0.73-1.97,1.08-2.95c-0.74-0.07-1.48-0.15-2.21-0.22c-5.17-0.46-10.58-0.81-15.88-1.06
		c-13.25-0.68-27.57-0.61-41.51,0.16c-38.25,2-75.7,8.96-112.72,18.71c-37.08,9.66-73.3,22.34-110.4,32.9
		c-4.29,1.19-8.6,2.62-12.93,3.5c-5.06,1.77-10.16,2.36-15.31,3.34c-4.8,0.88-9.59,1.68-14.64,2.01
		c-5.01,0.31-10.17,0.15-15.26-1.09c-3.5-0.85-6.97-1.61-10.08-4.26c-1.39-0.88-2.79-2.03-4-3.2c-3.95-3.75-6.69-8.7-8.24-13.67
		c-0.34-1.11-0.76-2.22-1.01-3.33c-0.32-1.09-0.19-2.2-1.08-3.51v-0.01c0-0.42,0.88-0.85,0-1.27v-16.45
		c0.88-1.84,0.71-3.67,0.99-5.48c1.42-8.61,4.04-16.97,7-25.06c0.14-0.61,0.33-1.24,0.6-1.95l0.11,0.05
		c0.17-0.46,0.34-0.91,0.52-1.37c3.55-9.11,7.77-17.92,12.53-26.43c9.55-16.96,21.07-32.9,35.1-46.6
		c7.09-6.83,14.72-12.94,23.01-18.26c8.29-5.28,17.29-9.62,26.84-12.39c9.53-2.78,19.55-3.9,29.43-3.4
		c9.9,0.45,19.59,2.53,28.91,5.44c18.67,5.91,35.88,14.92,52.67,24.33c16.78,9.47,33.1,19.54,49.64,29.24
		c16.54,9.7,33.14,19.16,50.28,27.76c8.57,4.3,17.05,8.4,25.89,12.13c1.33,0.56,2.76,1.12,3.65,1.66c3.53,1.27,6.49,2.48,9.64,3.61
		c4.52,1.58,9.36,3.14,14.08,3.99c-4.76-0.67-9.58-2.05-14.17-3.46c-3.09-0.97-6.02-2.04-9.55-3.15c-0.88-0.54-2.59-1.07-4.06-1.63
		c-8.97-3.48-17.42-7.34-26.14-11.41c-17.42-8.16-34.5-17.04-51.28-26.46c-16.75-9.45-33.26-19.25-50.09-28.39
		c-16.82-9.08-33.99-17.68-52.1-23.08c-9.04-2.68-18.31-4.44-27.61-4.86c-3.82-0.17-7.64-0.07-11.44,0.27
		c1.01-0.02,1.85-0.01,2.49,0c0,0-16.29,0.77-35.76,10.16c-9.62,5.11-18.52,11.76-26.61,19.16c3.91,0.94,7.88,1.8,11.83,2.57
		c5.91,1.14,11.87,2.09,17.86,2.78c5.99,0.69,12.01,1.13,18.05,1.15c6.03,0,12.1-0.39,18.04-1.66c-5.81,1.82-11.88,2.79-17.97,3.35
		c-6.1,0.55-12.23,0.67-18.36,0.53c-6.13-0.14-12.25-0.54-18.35-1.14c-5.57-0.56-11.07-1.25-16.65-2.18
		c-1.92,1.97-3.8,3.99-5.63,6.05c-0.22,0.29-0.45,0.57-0.67,0.86c0,0,59.31,15,114.97-4.78c0,0-17.43,40.62-76.46,45.34
		c-42.5,3.4-57.97-1.95-63.3-5.22c-0.15,0.28-0.32,0.55-0.47,0.83c-4.98,9.09-9.42,18.55-12.97,28.26
		c-0.22,0.93-0.34,1.99-0.24,2.86c0.12,1.31,0.57,2.43,1.37,3.41c1.61,1.98,4.77,3.26,8.13,3.88c6.84,1.23,14.37,0.64,21.71-0.34
		c7.4-1.02,14.7-2.61,22.07-4.4l22.19-5.23c29.7-6.87,59.78-12.26,90.23-14.63c30.44-2.43,60.88-2.03,91.2,0.98
		c25.73,2.54,51.27,6.93,76.01,12.77c5.3,1.04,9,2.13,13.47,3.26c-4.48-1.05-8.17-2.04-13.47-3c-24.73-5.36-50.45-9.28-76.16-11.33
		c-1.59-0.13-2.82-0.24-4.41-0.36c-34.83-0.09-91.38,1.2-194.49,37.88c-57.65,20.51-63.98-0.25-63.98-0.25s-0.1-0.69-0.19-1.82
		c-0.04,0.24-0.1,0.48-0.14,0.73c-1.18,7.11-1.69,14.45-0.65,21.34l0.1-0.01c0.14,1.15,0.53,2.71,0.98,4.04
		c0.46,1.38,1.04,2.72,1.72,4c1.36,2.56,3.15,4.87,5.3,6.79c4.31,3.85,10.09,5.95,16.14,6.55c6.08,0.63,12.4-0.05,18.59-1.37
		c6.17-1.34,12.41-3.34,18.57-5.32c24.69-8.19,49.18-17.51,74.09-25.49c24.89-8.04,50.16-15.1,75.88-19.94
		c25.7-4.83,51.91-7.47,78.02-6.2c-26.13-0.72-52.21,2.45-77.71,7.8c-25.53,5.35-50.55,12.9-75.18,21.43
		c-20.02,6.87-39.73,14.6-59.65,21.96c17.38-4.86,34.61-10.33,51.98-15.55c18.41-5.55,36.86-10.76,55.56-15.38
		c37.38-9.2,75.42-15.81,113.98-17.03c14-0.42,28.39-0.14,41.64,0.87c6.35,0.44,12.56,1.03,18.66,1.75c0.38-1.1,0.75-2.2,1.11-3.29
		c-6.3-0.92-12.39-1.75-19.77-2.49c-10.6-1.22-20.98-2.19-31.69-2.87c-18.47-1.25-36.63-1.65-55.16-1.36
		c-9.26,0.17-18.53,0.5-27.78,1.08c-9.27,0.49-18.51,1.32-27.74,2.44c18.19-3.99,36.8-6.02,55.41-7.02
		c18.63-1.01,36.95-0.81,55.57,0.36c10.62,0.72,20.8,1.77,31.4,3.16c7.65,0.91,14.15,1.97,20.87,3.19c0.83-2.71,1.58-5.4,2.26-8.07
		c-7.61-1.21-15.19-2.88-22.56-4.95c-0.07-0.02,0.32-0.04-0.56-0.06c-18.55-5.51-38.22-13.54-56.61-22.26
		c-9.2-4.45-17.95-9.07-26.96-13.86c-8.94-4.81-18.04-9.3-27.25-13.54c-9.24-4.18-18.61-8.06-28.24-11.21
		c-4.81-1.6-9.68-3.01-14.64-4.07c-2.48-0.53-4.98-0.96-7.5-1.26c-2.51-0.3-5.06-0.53-7.6-0.27c5.05-0.87,10.24-0.34,15.3,0.36
		c5.07,0.74,10.09,1.84,15.05,3.13c9.9,2.68,19.56,6.16,29.02,10.1c9.47,3.9,18.7,8.36,27.82,12.98
		c9.05,4.65,17.76,9.23,26.94,13.57c17.93,8.59,36.12,16.55,54.68,22.62c0.88,0.13,1.12,0.27,1.52,0.4
		c7.27,2.31,14.7,4.25,22.22,5.8c2.19-9.32,3.38-18.34,3.38-26.94C1164.89,380.73,1073.16,289,960,289
		c-113.16,0-204.89,91.73-204.89,204.89c0,44.26,31.34,99.5,69.51,150.36C828.48,641.5,832.37,638.78,836.28,636.09z
		 M1081.79,506.19c0.09-0.81,0.35-1.68,0.89-2.39c0.5-0.69,1.44-1.42,2.56-1.23c1.1,0.26,1.49,1.13,1.69,1.83
		c0.2,0.73,0.23,1.47,0.17,2.19c-0.06,0.72-0.22,1.45-0.54,2.13c-0.32,0.65-0.86,1.46-1.98,1.55c-1.14,0.02-1.94-0.85-2.32-1.6
		C1081.85,507.88,1081.74,507.02,1081.79,506.19z M1068.6,501.09c0.1-1.04,0.38-2.1,0.92-3.06c0.27-0.48,0.61-0.93,1.02-1.31
		c0.68-0.75,1.8-1.48,3.07-1.29c1.25,0.25,1.87,1.15,2.24,1.96c0.26,0.43,0.45,0.9,0.58,1.38c0.26,0.96,0.31,1.96,0.22,2.93
		c-0.08,0.98-0.3,1.95-0.72,2.86c-0.22,0.45-0.48,0.89-0.81,1.28c-0.51,0.73-1.27,1.54-2.55,1.59c-1.28,0-2.26-0.89-2.8-1.73
		c-0.34-0.44-0.6-0.94-0.78-1.45C1068.62,503.23,1068.52,502.15,1068.6,501.09z M1053.53,495.85c0.15-1.55,0.58-3.11,1.41-4.5
		c0.41-0.7,0.94-1.34,1.59-1.87c0.86-0.82,2.15-1.54,3.58-1.35c1.4,0.24,2.25,1.18,2.8,2.09c0.47,0.61,0.78,1.31,1.02,2.03
		c0.45,1.43,0.56,2.93,0.43,4.41c-0.12,1.47-0.49,2.94-1.18,4.29c-0.35,0.67-0.78,1.31-1.35,1.85c-0.7,0.82-1.69,1.62-3.12,1.64
		c-1.42-0.02-2.59-0.92-3.29-1.86c-0.55-0.62-0.96-1.34-1.25-2.08C1053.57,499.01,1053.41,497.41,1053.53,495.85z M1034.72,490.33
		c0.2-2.05,0.77-4.11,1.9-5.93c0.56-0.91,1.27-1.75,2.16-2.42c1.04-0.89,2.52-1.6,4.09-1.41c1.55,0.23,2.62,1.2,3.35,2.22
		c0.66,0.8,1.11,1.73,1.44,2.67c0.65,1.9,0.81,3.92,0.64,5.89c-0.17,1.97-0.67,3.94-1.64,5.71c-0.49,0.89-1.09,1.73-1.88,2.42
		c-0.89,0.9-2.11,1.7-3.7,1.69c-1.56-0.03-2.91-0.96-3.78-1.99c-0.76-0.8-1.31-1.73-1.72-2.71
		C1034.78,494.51,1034.56,492.4,1034.72,490.33z M1015.91,484.82c0.24-2.56,0.96-5.12,2.38-7.37c0.7-1.12,1.61-2.16,2.73-2.97
		c1.22-0.96,2.87-1.67,4.59-1.46c1.71,0.22,3.01,1.23,3.9,2.35c0.87,0.98,1.45,2.14,1.88,3.32c0.84,2.37,1.06,4.9,0.85,7.36
		c-0.21,2.47-0.86,4.93-2.1,7.14c-0.63,1.1-1.4,2.15-2.42,2.99c-1.09,0.97-2.52,1.78-4.27,1.74c-1.7-0.05-3.24-1-4.27-2.13
		c-0.97-0.97-1.68-2.13-2.18-3.34C1015.99,490.01,1015.72,487.38,1015.91,484.82z M993.36,479.02c0.29-3.06,1.16-6.12,2.87-8.81
		c0.85-1.34,1.94-2.57,3.3-3.53c1.4-1.02,3.24-1.73,5.1-1.52c1.86,0.21,3.39,1.25,4.46,2.48c1.06,1.17,1.77,2.55,2.31,3.96
		c1.04,2.84,1.31,5.88,1.05,8.84c-0.25,2.96-1.03,5.92-2.55,8.57c-0.76,1.31-1.7,2.57-2.95,3.56c-1.28,1.06-2.94,1.86-4.84,1.79
		c-1.84-0.07-3.56-1.04-4.76-2.26c-1.17-1.15-2.03-2.53-2.65-3.97C993.46,485.23,993.12,482.08,993.36,479.02z M972.29,462.83
		c1-1.55,2.27-2.98,3.86-4.08c1.58-1.09,3.6-1.79,5.61-1.58c2.01,0.2,3.77,1.27,5.01,2.62c1.26,1.35,2.11,2.96,2.74,4.61
		c1.23,3.31,1.56,6.86,1.26,10.32c-0.3,3.46-1.22,6.91-3.01,10c-0.9,1.53-2.01,2.99-3.49,4.14c-1.47,1.14-3.35,1.94-5.41,1.83
		c-1.98-0.09-3.88-1.08-5.25-2.39c-1.38-1.33-2.39-2.92-3.12-4.6c-1.45-3.38-1.84-7.04-1.56-10.61
		C969.27,469.51,970.28,465.95,972.29,462.83z" />
		<path class="st0" d="M1137.77,546.93c-12.37-0.01-25.71,0.58-38.7,1.67c-37.04,3.09-73.34,10.44-108.92,21.24
		c-21.95,6.67-43.48,15.11-64.51,23.94c-13.06,6.18-25.93,11.79-38.58,18.37c-16.5,8.59-32.65,17.79-48.37,27.74
		c-4.03,2.32-8.03,4.69-12.01,7.1C885.79,725.01,960,792,960,792s149.48-134.93,193.08-244.81
		C1148.15,547.02,1143.33,546.94,1137.77,546.93z" />
	</g>
</svg>