<?xml version="1.0" encoding="UTF-8" standalone="no"?>
<!-- Generator: Adobe Illustrator 27.5.0, SVG Export Plug-In . SVG Version: 6.00 Build 0)  -->

<svg version="1.1" id="Layer_1" x="0px" y="0px" viewBox="0 0 409.78 503" xml:space="preserve"
   sodipodi:docname="logo-dark.svg" width="409.78" height="503" inkscape:version="1.3.2 (091e20e, 2023-11-25)"
   xmlns:inkscape="http://www.inkscape.org/namespaces/inkscape"
   xmlns:sodipodi="http://sodipodi.sourceforge.net/DTD/sodipodi-0.dtd" xmlns="http://www.w3.org/2000/svg"
   xmlns:svg="http://www.w3.org/2000/svg">
   <defs id="defs2" />
   <sodipodi:namedview id="namedview2" pagecolor="#ffffff" bordercolor="#000000" borderopacity="0.25"
      inkscape:showpageshadow="2" inkscape:pageopacity="0.0" inkscape:pagecheckerboard="0" inkscape:deskcolor="#d1d1d1"
      inkscape:zoom="0.6328125" inkscape:cx="801.97531" inkscape:cy="493.82716" inkscape:window-width="1920"
      inkscape:window-height="1019" inkscape:window-x="0" inkscape:window-y="24" inkscape:window-maximized="1"
      inkscape:current-layer="Layer_1" />
   <style type="text/css" id="style1">
      .st0 {
         fill: #e6e6e6;
      }
   </style>
   <g id="g2" transform="translate(-755.11,-289)">
      <path class="st0"
         d="m 836.28,636.09 c 15.86,-9.96 32.09,-19.3 48.71,-27.94 9.75,-5.07 19.63,-9.96 29.63,-14.37 24.09,-10.6 48.87,-20.55 74.22,-28.25 35.86,-10.89 72.47,-18.3 109.85,-21.42 13.11,-1.09 26.71,-1.7 39.07,-1.68 6.15,0 11.46,0.1 17.02,0.32 0.37,-0.99 0.73,-1.97 1.08,-2.95 -0.74,-0.07 -1.48,-0.15 -2.21,-0.22 -5.17,-0.46 -10.58,-0.81 -15.88,-1.06 -13.25,-0.68 -27.57,-0.61 -41.51,0.16 -38.25,2 -75.7,8.96 -112.72,18.71 -37.08,9.66 -73.3,22.34 -110.4,32.9 -4.29,1.19 -8.6,2.62 -12.93,3.5 -5.06,1.77 -10.16,2.36 -15.31,3.34 -4.8,0.88 -9.59,1.68 -14.64,2.01 -5.01,0.31 -10.17,0.15 -15.26,-1.09 -3.5,-0.85 -6.97,-1.61 -10.08,-4.26 -1.39,-0.88 -2.79,-2.03 -4,-3.2 -3.95,-3.75 -6.69,-8.7 -8.24,-13.67 -0.34,-1.11 -0.76,-2.22 -1.01,-3.33 -0.32,-1.09 -0.19,-2.2 -1.08,-3.51 v -0.01 c 0,-0.42 0.88,-0.85 0,-1.27 v -16.45 c 0.88,-1.84 0.71,-3.67 0.99,-5.48 1.42,-8.61 4.04,-16.97 7,-25.06 0.14,-0.61 0.33,-1.24 0.6,-1.95 l 0.11,0.05 c 0.17,-0.46 0.34,-0.91 0.52,-1.37 3.55,-9.11 7.77,-17.92 12.53,-26.43 9.55,-16.96 21.07,-32.9 35.1,-46.6 7.09,-6.83 14.72,-12.94 23.01,-18.26 8.29,-5.28 17.29,-9.62 26.84,-12.39 9.53,-2.78 19.55,-3.9 29.43,-3.4 9.9,0.45 19.59,2.53 28.91,5.44 18.67,5.91 35.88,14.92 52.67,24.33 16.78,9.47 33.1,19.54 49.64,29.24 16.54,9.7 33.14,19.16 50.28,27.76 8.57,4.3 17.05,8.4 25.89,12.13 1.33,0.56 2.76,1.12 3.65,1.66 3.53,1.27 6.49,2.48 9.64,3.61 4.52,1.58 9.36,3.14 14.08,3.99 -4.76,-0.67 -9.58,-2.05 -14.17,-3.46 -3.09,-0.97 -6.02,-2.04 -9.55,-3.15 -0.88,-0.54 -2.59,-1.07 -4.06,-1.63 -8.97,-3.48 -17.42,-7.34 -26.14,-11.41 -17.42,-8.16 -34.5,-17.04 -51.28,-26.46 -16.75,-9.45 -33.26,-19.25 -50.09,-28.39 -16.82,-9.08 -33.99,-17.68 -52.1,-23.08 -9.04,-2.68 -18.31,-4.44 -27.61,-4.86 -3.82,-0.17 -7.64,-0.07 -11.44,0.27 1.01,-0.02 1.85,-0.01 2.49,0 0,0 -16.29,0.77 -35.76,10.16 -9.62,5.11 -18.52,11.76 -26.61,19.16 3.91,0.94 7.88,1.8 11.83,2.57 5.91,1.14 11.87,2.09 17.86,2.78 5.99,0.69 12.01,1.13 18.05,1.15 6.03,0 12.1,-0.39 18.04,-1.66 -5.81,1.82 -11.88,2.79 -17.97,3.35 -6.1,0.55 -12.23,0.67 -18.36,0.53 -6.13,-0.14 -12.25,-0.54 -18.35,-1.14 -5.57,-0.56 -11.07,-1.25 -16.65,-2.18 -1.92,1.97 -3.8,3.99 -5.63,6.05 -0.22,0.29 -0.45,0.57 -0.67,0.86 0,0 59.31,15 114.97,-4.78 0,0 -17.43,40.62 -76.46,45.34 -42.5,3.4 -57.97,-1.95 -63.3,-5.22 -0.15,0.28 -0.32,0.55 -0.47,0.83 -4.98,9.09 -9.42,18.55 -12.97,28.26 -0.22,0.93 -0.34,1.99 -0.24,2.86 0.12,1.31 0.57,2.43 1.37,3.41 1.61,1.98 4.77,3.26 8.13,3.88 6.84,1.23 14.37,0.64 21.71,-0.34 7.4,-1.02 14.7,-2.61 22.07,-4.4 l 22.19,-5.23 c 29.7,-6.87 59.78,-12.26 90.23,-14.63 30.44,-2.43 60.88,-2.03 91.2,0.98 25.73,2.54 51.27,6.93 76.01,12.77 5.3,1.04 9,2.13 13.47,3.26 -4.48,-1.05 -8.17,-2.04 -13.47,-3 -24.73,-5.36 -50.45,-9.28 -76.16,-11.33 -1.59,-0.13 -2.82,-0.24 -4.41,-0.36 -34.83,-0.09 -91.38,1.2 -194.49,37.88 -57.65,20.51 -63.98,-0.25 -63.98,-0.25 0,0 -0.1,-0.69 -0.19,-1.82 -0.04,0.24 -0.1,0.48 -0.14,0.73 -1.18,7.11 -1.69,14.45 -0.65,21.34 l 0.1,-0.01 c 0.14,1.15 0.53,2.71 0.98,4.04 0.46,1.38 1.04,2.72 1.72,4 1.36,2.56 3.15,4.87 5.3,6.79 4.31,3.85 10.09,5.95 16.14,6.55 6.08,0.63 12.4,-0.05 18.59,-1.37 6.17,-1.34 12.41,-3.34 18.57,-5.32 24.69,-8.19 49.18,-17.51 74.09,-25.49 24.89,-8.04 50.16,-15.1 75.88,-19.94 25.7,-4.83 51.91,-7.47 78.02,-6.2 -26.13,-0.72 -52.21,2.45 -77.71,7.8 -25.53,5.35 -50.55,12.9 -75.18,21.43 -20.02,6.87 -39.73,14.6 -59.65,21.96 17.38,-4.86 34.61,-10.33 51.98,-15.55 18.41,-5.55 36.86,-10.76 55.56,-15.38 37.38,-9.2 75.42,-15.81 113.98,-17.03 14,-0.42 28.39,-0.14 41.64,0.87 6.35,0.44 12.56,1.03 18.66,1.75 0.38,-1.1 0.75,-2.2 1.11,-3.29 -6.3,-0.92 -12.39,-1.75 -19.77,-2.49 -10.6,-1.22 -20.98,-2.19 -31.69,-2.87 -18.47,-1.25 -36.63,-1.65 -55.16,-1.36 -9.26,0.17 -18.53,0.5 -27.78,1.08 -9.27,0.49 -18.51,1.32 -27.74,2.44 18.19,-3.99 36.8,-6.02 55.41,-7.02 18.63,-1.01 36.95,-0.81 55.57,0.36 10.62,0.72 20.8,1.77 31.4,3.16 7.65,0.91 14.15,1.97 20.87,3.19 0.83,-2.71 1.58,-5.4 2.26,-8.07 -7.61,-1.21 -15.19,-2.88 -22.56,-4.95 -0.07,-0.02 0.32,-0.04 -0.56,-0.06 -18.55,-5.51 -38.22,-13.54 -56.61,-22.26 -9.2,-4.45 -17.95,-9.07 -26.96,-13.86 -8.94,-4.81 -18.04,-9.3 -27.25,-13.54 -9.24,-4.18 -18.61,-8.06 -28.24,-11.21 -4.81,-1.6 -9.68,-3.01 -14.64,-4.07 -2.48,-0.53 -4.98,-0.96 -7.5,-1.26 -2.51,-0.3 -5.06,-0.53 -7.6,-0.27 5.05,-0.87 10.24,-0.34 15.3,0.36 5.07,0.74 10.09,1.84 15.05,3.13 9.9,2.68 19.56,6.16 29.02,10.1 9.47,3.9 18.7,8.36 27.82,12.98 9.05,4.65 17.76,9.23 26.94,13.57 17.93,8.59 36.12,16.55 54.68,22.62 0.88,0.13 1.12,0.27 1.52,0.4 7.27,2.31 14.7,4.25 22.22,5.8 2.19,-9.32 3.38,-18.34 3.38,-26.94 C 1164.89,380.73 1073.16,289 960,289 c -113.16,0 -204.89,91.73 -204.89,204.89 0,44.26 31.34,99.5 69.51,150.36 3.86,-2.75 7.75,-5.47 11.66,-8.16 z m 245.51,-129.9 c 0.09,-0.81 0.35,-1.68 0.89,-2.39 0.5,-0.69 1.44,-1.42 2.56,-1.23 1.1,0.26 1.49,1.13 1.69,1.83 0.2,0.73 0.23,1.47 0.17,2.19 -0.06,0.72 -0.22,1.45 -0.54,2.13 -0.32,0.65 -0.86,1.46 -1.98,1.55 -1.14,0.02 -1.94,-0.85 -2.32,-1.6 -0.41,-0.79 -0.52,-1.65 -0.47,-2.48 z m -13.19,-5.1 c 0.1,-1.04 0.38,-2.1 0.92,-3.06 0.27,-0.48 0.61,-0.93 1.02,-1.31 0.68,-0.75 1.8,-1.48 3.07,-1.29 1.25,0.25 1.87,1.15 2.24,1.96 0.26,0.43 0.45,0.9 0.58,1.38 0.26,0.96 0.31,1.96 0.22,2.93 -0.08,0.98 -0.3,1.95 -0.72,2.86 -0.22,0.45 -0.48,0.89 -0.81,1.28 -0.51,0.73 -1.27,1.54 -2.55,1.59 -1.28,0 -2.26,-0.89 -2.8,-1.73 -0.34,-0.44 -0.6,-0.94 -0.78,-1.45 -0.37,-1.02 -0.47,-2.1 -0.39,-3.16 z m -15.07,-5.24 c 0.15,-1.55 0.58,-3.11 1.41,-4.5 0.41,-0.7 0.94,-1.34 1.59,-1.87 0.86,-0.82 2.15,-1.54 3.58,-1.35 1.4,0.24 2.25,1.18 2.8,2.09 0.47,0.61 0.78,1.31 1.02,2.03 0.45,1.43 0.56,2.93 0.43,4.41 -0.12,1.47 -0.49,2.94 -1.18,4.29 -0.35,0.67 -0.78,1.31 -1.35,1.85 -0.7,0.82 -1.69,1.62 -3.12,1.64 -1.42,-0.02 -2.59,-0.92 -3.29,-1.86 -0.55,-0.62 -0.96,-1.34 -1.25,-2.08 -0.6,-1.49 -0.76,-3.09 -0.64,-4.65 z m -18.81,-5.52 c 0.2,-2.05 0.77,-4.11 1.9,-5.93 0.56,-0.91 1.27,-1.75 2.16,-2.42 1.04,-0.89 2.52,-1.6 4.09,-1.41 1.55,0.23 2.62,1.2 3.35,2.22 0.66,0.8 1.11,1.73 1.44,2.67 0.65,1.9 0.81,3.92 0.64,5.89 -0.17,1.97 -0.67,3.94 -1.64,5.71 -0.49,0.89 -1.09,1.73 -1.88,2.42 -0.89,0.9 -2.11,1.7 -3.7,1.69 -1.56,-0.03 -2.91,-0.96 -3.78,-1.99 -0.76,-0.8 -1.31,-1.73 -1.72,-2.71 -0.8,-1.96 -1.02,-4.07 -0.86,-6.14 z m -18.81,-5.51 c 0.24,-2.56 0.96,-5.12 2.38,-7.37 0.7,-1.12 1.61,-2.16 2.73,-2.97 1.22,-0.96 2.87,-1.67 4.59,-1.46 1.71,0.22 3.01,1.23 3.9,2.35 0.87,0.98 1.45,2.14 1.88,3.32 0.84,2.37 1.06,4.9 0.85,7.36 -0.21,2.47 -0.86,4.93 -2.1,7.14 -0.63,1.1 -1.4,2.15 -2.42,2.99 -1.09,0.97 -2.52,1.78 -4.27,1.74 -1.7,-0.05 -3.24,-1 -4.27,-2.13 -0.97,-0.97 -1.68,-2.13 -2.18,-3.34 -1.01,-2.44 -1.28,-5.07 -1.09,-7.63 z m -22.55,-5.8 c 0.29,-3.06 1.16,-6.12 2.87,-8.81 0.85,-1.34 1.94,-2.57 3.3,-3.53 1.4,-1.02 3.24,-1.73 5.1,-1.52 1.86,0.21 3.39,1.25 4.46,2.48 1.06,1.17 1.77,2.55 2.31,3.96 1.04,2.84 1.31,5.88 1.05,8.84 -0.25,2.96 -1.03,5.92 -2.55,8.57 -0.76,1.31 -1.7,2.57 -2.95,3.56 -1.28,1.06 -2.94,1.86 -4.84,1.79 -1.84,-0.07 -3.56,-1.04 -4.76,-2.26 -1.17,-1.15 -2.03,-2.53 -2.65,-3.97 -1.24,-2.9 -1.58,-6.05 -1.34,-9.11 z m -21.07,-16.19 c 1,-1.55 2.27,-2.98 3.86,-4.08 1.58,-1.09 3.6,-1.79 5.61,-1.58 2.01,0.2 3.77,1.27 5.01,2.62 1.26,1.35 2.11,2.96 2.74,4.61 1.23,3.31 1.56,6.86 1.26,10.32 -0.3,3.46 -1.22,6.91 -3.01,10 -0.9,1.53 -2.01,2.99 -3.49,4.14 -1.47,1.14 -3.35,1.94 -5.41,1.83 -1.98,-0.09 -3.88,-1.08 -5.25,-2.39 -1.38,-1.33 -2.39,-2.92 -3.12,-4.6 -1.45,-3.38 -1.84,-7.04 -1.56,-10.61 0.34,-3.58 1.35,-7.14 3.36,-10.26 z"
         id="path1" />
      <path class="st0"
         d="m 1137.77,546.93 c -12.37,-0.01 -25.71,0.58 -38.7,1.67 -37.04,3.09 -73.34,10.44 -108.92,21.24 -21.95,6.67 -43.48,15.11 -64.51,23.94 -13.06,6.18 -25.93,11.79 -38.58,18.37 -16.5,8.59 -32.65,17.79 -48.37,27.74 -4.03,2.32 -8.03,4.69 -12.01,7.1 C 885.79,725.01 960,792 960,792 c 0,0 149.48,-134.93 193.08,-244.81 -4.93,-0.17 -9.75,-0.25 -15.31,-0.26 z"
         id="path2" />
   </g>
</svg>