<?xml version="1.0" encoding="UTF-8"?>
<svg xmlns="http://www.w3.org/2000/svg" xmlns:xlink="http://www.w3.org/1999/xlink" width="198px" height="198px" viewBox="0 0 198 198" version="1.1">
<defs>
<linearGradient id="linear0" gradientUnits="userSpaceOnUse" x1="-0.00828" y1="0.07652" x2="0.57636" y2="0.78411" gradientTransform="matrix(197.199219,0,0,175.679688,0.0234375,21.792969)">
<stop offset="0" style="stop-color:rgb(25.490196%,81.960784%,100%);stop-opacity:1;"/>
<stop offset="1" style="stop-color:rgb(74.117647%,20.392157%,99.607843%);stop-opacity:1;"/>
</linearGradient>
<linearGradient id="linear1" gradientUnits="userSpaceOnUse" x1="0.43376" y1="0.02242" x2="0.50316" y2="0.8903" gradientTransform="matrix(90.164062,0,0,164.621094,68.066406,0.046875)">
<stop offset="0" style="stop-color:rgb(100%,91.764706%,51.372549%);stop-opacity:1;"/>
<stop offset="0.08333" style="stop-color:rgb(100%,86.666667%,20.784314%);stop-opacity:1;"/>
<stop offset="1" style="stop-color:rgb(100%,65.882353%,0%);stop-opacity:1;"/>
</linearGradient>
</defs>
<g id="surface1">
<path style=" stroke:none;fill-rule:nonzero;fill:url(#linear0);" d="M 196.589844 29.226562 L 103.941406 194.898438 C 102.03125 198.320312 97.113281 198.339844 95.171875 194.9375 L 0.6875 29.242188 C -1.425781 25.535156 1.746094 21.042969 5.949219 21.792969 L 98.695312 38.371094 C 99.289062 38.476562 99.894531 38.476562 100.484375 38.367188 L 191.292969 21.816406 C 195.480469 21.054688 198.667969 25.511719 196.589844 29.226562 Z M 196.589844 29.226562 "/>
<path style=" stroke:none;fill-rule:nonzero;fill:url(#linear1);" d="M 142.875 0.046875 L 74.3125 13.484375 C 73.1875 13.703125 72.351562 14.660156 72.285156 15.804688 L 68.066406 87.035156 C 68.019531 87.828125 68.347656 88.597656 68.957031 89.109375 C 69.5625 89.621094 70.375 89.816406 71.148438 89.636719 L 90.234375 85.234375 C 92.023438 84.820312 93.636719 86.394531 93.269531 88.191406 L 87.597656 115.960938 C 87.214844 117.832031 88.96875 119.429688 90.796875 118.875 L 102.585938 115.292969 C 104.414062 114.738281 106.167969 116.339844 105.78125 118.210938 L 96.769531 161.832031 C 96.207031 164.5625 99.835938 166.050781 101.347656 163.710938 L 102.359375 162.148438 L 158.230469 50.652344 C 159.164062 48.785156 157.550781 46.65625 155.5 47.050781 L 135.851562 50.84375 C 134.007812 51.199219 132.433594 49.480469 132.957031 47.675781 L 145.78125 3.21875 C 146.300781 1.40625 144.726562 -0.3125 142.875 0.046875 Z M 142.875 0.046875 "/>
<path style="fill:none;stroke-width:5.00846;stroke-linecap:butt;stroke-linejoin:miter;stroke:rgb(100%,0.784314%,0.784314%);stroke-opacity:1;stroke-miterlimit:4;" d="M 91.357625 109.4055 C 90.465264 108.837634 89.628675 108.163293 88.675471 107.706972 C 87.387632 107.088404 85.871632 107.134036 84.477318 106.80447 C 76.877038 105.019748 68.501012 105.71944 61.686618 109.806049 C 57.858591 112.102865 55.242351 115.793995 53.290311 119.703145 C 52.849201 120.580295 52.326967 121.447305 52.088666 122.400509 C 50.810967 127.511304 51.191234 133.088561 51.191234 138.295691 C 51.191234 145.333176 51.96698 150.768466 57.189321 155.990807 C 61.549721 160.351207 68.212008 162.141 73.981934 163.788826 C 80.61887 165.685093 87.529598 166.435488 94.374414 167.084478 C 97.7664 167.408973 101.158386 167.986979 104.570653 167.986979 " transform="matrix(0.770428,0,0,0.770428,0.013964,0)"/>
<path style="fill:none;stroke-width:5.00846;stroke-linecap:butt;stroke-linejoin:miter;stroke:rgb(100%,0.784314%,0.784314%);stroke-opacity:1;stroke-miterlimit:4;" d="M 119.857408 164.022057 C 119.857408 163.261521 119.335174 162.663234 119.25405 161.92298 C 118.939695 159.063368 119.396016 156.06179 119.553194 153.227529 C 119.715441 150.367917 119.679949 147.38662 119.553194 144.527008 C 119.370665 140.273082 118.676043 136.130702 118.057475 131.932548 C 117.73298 129.747277 117.286799 126.451626 117.154973 124.134529 C 117.119482 123.434837 117.231027 122.730074 117.154973 122.035452 C 116.65302 117.497593 115.547709 113.035788 114.756753 108.53849 C 117.783682 107.281072 120.835963 107.717113 123.984578 107.494022 C 128.091467 107.199949 132.152724 107.189808 136.279894 107.189808 C 141.137178 107.189808 144.483532 107.554865 149.178568 105.993233 " transform="matrix(0.770428,0,0,0.770428,0.013964,0)"/>
<path style="fill:none;stroke-width:5.00846;stroke-linecap:butt;stroke-linejoin:miter;stroke:rgb(100%,0.784314%,0.784314%);stroke-opacity:1;stroke-miterlimit:4;" d="M 118.924485 133.549953 C 119.522772 133.752762 120.105849 134.026555 120.724418 134.15331 C 121.702973 134.345979 122.72209 134.15331 123.720926 134.15331 C 127.016577 134.15331 130.368002 134.391611 133.618022 133.849096 " transform="matrix(0.770428,0,0,0.770428,0.013964,0)"/>
<path style="fill:none;stroke-width:5.00846;stroke-linecap:butt;stroke-linejoin:miter;stroke:rgb(100%,0.784314%,0.784314%);stroke-opacity:1;stroke-miterlimit:4;" d="M 164.926714 102.971374 C 164.957135 104.999467 165.261349 110.946851 165.428667 112.944523 C 165.590915 114.932055 165.241068 115.231199 165.129523 117.441821 C 165.028119 119.338088 165.129523 121.239426 165.129523 123.140763 L 165.129523 145.034032 C 165.129523 148.917831 164.931784 152.852332 165.129523 156.731061 C 165.241068 158.961963 165.413456 161.426097 165.727811 163.626578 C 165.829216 164.331341 166.026955 164.498658 166.026955 165.127367 " transform="matrix(0.770428,0,0,0.770428,0.013964,0)"/>
<path style="fill:none;stroke-width:5.00846;stroke-linecap:butt;stroke-linejoin:miter;stroke:rgb(100%,0.784314%,0.784314%);stroke-opacity:1;stroke-miterlimit:4;" d="M 164.652921 105.724511 C 167.608868 105.415226 170.711851 106.14534 173.652586 105.724511 C 174.468894 105.607895 175.239569 105.27833 176.050807 105.126223 C 176.821482 104.979186 180.487261 104.61413 181.146391 104.527936 C 187.164759 103.721768 193.396076 103.361782 198.542363 107.2253 C 199.901185 108.244417 201.285359 109.62352 201.543941 111.423453 C 202.228423 116.240175 194.374631 120.560014 191.043487 122.522195 C 188.27514 124.14974 185.486511 126.127131 182.64718 127.617779 C 180.436559 128.783933 177.830458 129.58503 175.452519 130.315144 C 173.824974 130.817097 167.44662 131.957899 165.778513 131.957899 " transform="matrix(0.770428,0,0,0.770428,0.013964,0)"/>
<path style="fill:none;stroke-width:5.00846;stroke-linecap:butt;stroke-linejoin:miter;stroke:rgb(100%,0.784314%,0.784314%);stroke-opacity:1;stroke-miterlimit:4;" d="M 166.893965 132.824909 C 167.264092 133.118983 168.658406 134.305417 169.297255 134.624842 C 173.535971 136.7442 178.180305 138.04725 182.490003 140.019571 C 188.655407 142.848761 193.948731 146.833965 199.586831 150.514954 C 205.625479 154.464666 211.567793 158.297763 216.678588 163.413628 " transform="matrix(0.770428,0,0,0.770428,0.013964,0)"/>
</g>
</svg>
